# Blender v3.0.0 OBJ File: 'CharacterDesign.blend'
# www.blender.org
mtllib Torch.mtl
o Torch.001_Cube.002
v -0.078247 0.000000 0.078247
v -0.080503 1.428839 0.080503
v -0.078247 0.000000 -0.078247
v -0.080503 1.428839 -0.080503
v 0.078247 0.000000 0.078247
v 0.080503 1.428839 0.080503
v 0.078247 0.000000 -0.078247
v 0.080503 1.428839 -0.080503
v -0.078247 0.092017 0.078247
v -0.078247 0.092017 -0.078247
v 0.078247 0.092017 -0.078247
v 0.078247 0.092017 0.078247
v -0.057332 0.149131 0.057332
v -0.057332 0.149131 -0.057332
v 0.057332 0.149131 -0.057332
v 0.057332 0.149131 0.057332
v -0.060938 0.670550 0.060938
v -0.060938 0.670550 -0.060938
v 0.060938 0.670550 -0.060938
v 0.060938 0.670550 0.060938
v -0.105877 1.464416 0.105877
v -0.105877 1.464416 -0.105877
v 0.105877 1.464416 0.105877
v 0.105877 1.464416 -0.105877
v -0.131220 1.861236 0.131220
v -0.131220 1.861236 -0.131220
v 0.131220 1.861236 0.131220
v 0.131220 1.861236 -0.131220
v -0.069509 1.896813 0.069509
v -0.069509 1.896813 -0.069509
v 0.069509 1.896813 0.069509
v 0.069509 1.896813 -0.069509
v -0.046259 1.962494 0.046259
v -0.046259 1.962494 -0.046259
v 0.046259 1.962494 0.046259
v 0.046259 1.962494 -0.046259
vt 0.478495 0.000000
vt 0.625000 0.000000
vt 0.625000 0.250000
vt 0.478495 0.250000
vt 0.625000 0.500000
vt 0.478495 0.500000
vt 0.625000 0.750000
vt 0.478495 0.750000
vt 0.625000 1.000000
vt 0.478495 1.000000
vt 0.125000 0.500000
vt 0.375000 0.500000
vt 0.375000 0.750000
vt 0.125000 0.750000
vt 0.391553 0.750000
vt 0.391553 1.000000
vt 0.375000 1.000000
vt 0.391553 0.500000
vt 0.375000 0.250000
vt 0.391553 0.250000
vt 0.375000 0.000000
vt 0.391553 0.000000
vt 0.401826 0.750000
vt 0.401826 1.000000
vt 0.401826 0.500000
vt 0.401826 0.250000
vt 0.401826 0.000000
vt 0.625000 0.250000
vt 0.625000 0.000000
vt 0.625000 0.000000
vt 0.625000 0.250000
vt 0.625000 0.500000
vt 0.875000 0.500000
vt 0.875000 0.750000
vt 0.625000 0.750000
vt 0.625000 1.000000
vt 0.625000 0.750000
vt 0.625000 1.000000
vt 0.625000 0.500000
vt 0.625000 0.500000
vt 0.625000 0.750000
vt 0.625000 1.000000
vt 0.625000 0.750000
vt 0.625000 1.000000
vt 0.625000 0.000000
vt 0.625000 0.250000
vt 0.625000 0.500000
vt 0.625000 0.250000
vt 0.625000 0.000000
vn -0.9997 -0.0258 0.0000
vn 0.0000 -0.0258 -0.9997
vn 0.9997 -0.0258 0.0000
vn 0.0000 -0.0258 0.9997
vn 0.0000 -1.0000 0.0000
vn 0.0000 0.0000 1.0000
vn 1.0000 0.0000 0.0000
vn 0.0000 0.0000 -1.0000
vn -1.0000 0.0000 0.0000
vn 0.0000 0.3439 0.9390
vn 0.9390 0.3439 0.0000
vn 0.0000 0.3439 -0.9390
vn -0.9390 0.3439 0.0000
vn 0.0000 -0.0069 1.0000
vn 1.0000 -0.0069 0.0000
vn 0.0000 -0.0069 -1.0000
vn -1.0000 -0.0069 0.0000
vn -0.9427 0.3337 0.0000
vn 0.0000 1.0000 0.0000
vn 0.0000 0.3337 0.9427
vn 0.0000 0.3337 -0.9427
vn 0.9427 0.3337 0.0000
vn 0.8141 -0.5807 0.0000
vn 0.0000 -0.0637 0.9980
vn -0.8141 -0.5807 0.0000
vn 0.0000 -0.5807 0.8141
vn 0.0000 -0.5807 -0.8141
vn 0.4995 0.8663 0.0000
vn 0.0000 -0.0637 -0.9980
vn 0.9980 -0.0637 0.0000
vn -0.9980 -0.0637 0.0000
vn -0.4995 0.8663 0.0000
vn 0.0000 0.8663 0.4995
vn 0.0000 0.8663 -0.4995
usemtl TorchText01
s off
f 17/1/1 2/2/1 4/3/1 18/4/1
f 18/4/2 4/3/2 8/5/2 19/6/2
f 19/6/3 8/5/3 6/7/3 20/8/3
f 20/8/4 6/7/4 2/9/4 17/10/4
f 3/11/5 7/12/5 5/13/5 1/14/5
f 5/13/6 12/15/6 9/16/6 1/17/6
f 7/12/7 11/18/7 12/15/7 5/13/7
f 3/19/8 10/20/8 11/18/8 7/12/8
f 1/21/9 9/22/9 10/20/9 3/19/9
f 12/15/10 16/23/10 13/24/10 9/16/10
f 11/18/11 15/25/11 16/23/11 12/15/11
f 10/20/12 14/26/12 15/25/12 11/18/12
f 9/22/13 13/27/13 14/26/13 10/20/13
f 16/23/14 20/8/14 17/10/14 13/24/14
f 15/25/15 19/6/15 20/8/15 16/23/15
f 14/26/16 18/4/16 19/6/16 15/25/16
f 13/27/17 17/1/17 18/4/17 14/26/17
f 30/28/18 29/29/18 33/30/18 34/31/18
f 36/32/19 34/33/19 33/34/19 35/35/19
f 29/36/20 31/37/20 35/35/20 33/38/20
f 32/39/21 30/28/21 34/31/21 36/32/21
f 31/37/22 32/39/22 36/32/22 35/35/22
usemtl TorchText02
f 6/7/23 8/5/23 24/40/23 23/41/23
f 21/42/24 23/41/24 27/43/24 25/44/24
f 4/3/25 2/2/25 21/45/25 22/46/25
f 2/9/26 6/7/26 23/41/26 21/42/26
f 8/5/27 4/3/27 22/46/27 24/40/27
f 27/43/28 28/47/28 32/39/28 31/37/28
f 24/40/29 22/46/29 26/48/29 28/47/29
f 23/41/30 24/40/30 28/47/30 27/43/30
f 22/46/31 21/45/31 25/49/31 26/48/31
f 26/48/32 25/49/32 29/29/32 30/28/32
f 25/44/33 27/43/33 31/37/33 29/36/33
f 28/47/34 26/48/34 30/28/34 32/39/34
