# Blender v2.81 (sub 16) OBJ File: 'VoiceFlight_LowPolyModels.blend'
# www.blender.org
mtllib Tree02.mtl
o Tree02_Cube.002
v -0.311833 0.000000 0.248544
v -0.380894 1.341972 -0.020162
v -0.285871 0.000000 -0.248544
v -0.338498 1.341972 -0.376802
v 0.185255 0.000000 0.248544
v -0.024254 1.341972 -0.020162
v 0.211217 0.000000 -0.248544
v 0.018142 1.341972 -0.376802
v -0.392833 0.000000 0.000000
v -0.427059 1.341972 -0.198482
v 0.293898 0.000000 0.000000
v 0.065642 1.341972 -0.198482
v -0.033254 0.000000 -0.343366
v -0.152827 1.341972 -0.444833
v -0.069174 0.000000 0.343366
v -0.211440 1.341972 0.047868
v -0.376125 2.712038 -0.761703
v -0.051023 0.000000 0.000000
v -0.406562 1.928292 -0.467613
v -0.327635 1.877125 -0.603975
v -0.173593 1.857604 -0.655998
v -0.036344 1.877125 -0.603975
v -0.004141 1.928292 -0.467613
v -0.084701 1.979460 -0.331252
v -0.240446 1.998981 -0.279229
v -0.375992 1.979460 -0.331252
v -0.322549 2.707414 -0.877786
v -0.190607 2.705651 -0.922073
v -0.090199 2.707414 -0.877786
v -0.055131 2.712038 -0.761703
v -0.115607 2.716661 -0.645620
v -0.239691 2.718425 -0.601333
v -0.347957 2.716661 -0.645620
v -0.366114 3.282965 -0.733419
v -0.329072 3.306775 -0.812887
v -0.251506 3.315859 -0.843205
v -0.163156 3.306775 -0.812887
v -0.136899 3.282965 -0.733419
v -0.163156 3.259156 -0.653951
v -0.251506 3.250072 -0.623634
v -0.329072 3.259156 -0.653951
v -0.307276 6.942477 0.401786
v -0.831962 6.552812 0.796769
v -0.309429 6.495071 0.989486
v 0.222700 6.552812 0.796769
v 0.419083 6.704161 0.291623
v 0.222700 6.855510 -0.213521
v -0.309429 6.913251 -0.406238
v -0.831962 6.855510 -0.213521
v 1.454265 6.024761 0.088064
v -2.471681 6.024761 0.088064
v -0.508708 6.588155 -1.792320
v -0.508708 5.461370 1.968452
v 0.912603 6.432572 -1.273046
v 0.912603 5.616953 1.449178
v -1.929180 5.616953 1.449178
v -1.929180 6.432572 -1.273046
v -1.037941 6.704161 0.291623
v -2.273735 4.661944 1.458214
v -0.570090 4.475399 2.080824
v 1.133555 4.661944 1.458214
v 1.783509 5.150904 -0.173757
v 1.133555 5.639870 -1.805724
v -0.570090 5.826413 -2.428333
v -2.273735 5.639870 -1.805724
v 2.001387 4.171238 -0.467280
v -3.141567 4.171238 -0.467280
v -0.570090 4.909280 -2.930568
v -0.570090 3.433200 1.996012
v 1.291266 4.705469 -2.250322
v 1.291266 3.637014 1.315766
v -2.431445 3.637014 1.315766
v -2.431445 4.705469 -2.250322
v -2.923689 5.150904 -0.173757
v -1.883685 3.253654 0.681724
v -0.521002 3.104299 1.180214
v 0.844349 3.253654 0.681724
v 1.363397 3.645139 -0.624907
v 0.844349 4.036627 -1.931535
v -0.521002 4.185983 -2.430025
v -1.883685 4.036627 -1.931535
v 0.583492 3.488445 -0.671855
v -1.392002 3.488445 -0.671855
v -0.404255 3.771939 -1.618044
v -0.404255 3.204952 0.274337
v 0.316268 3.693651 -1.356751
v 0.316268 3.283240 0.013043
v -1.113687 3.283240 0.013043
v -1.113687 3.693651 -1.356751
v -2.405402 3.645139 -0.624907
v -0.628701 3.271599 -0.397297
v -0.311649 3.235986 -0.278434
v 0.021785 3.271599 -0.397297
v 0.137677 3.364947 -0.708856
v 0.021785 3.458295 -1.020416
v -0.311649 3.493908 -1.139278
v -0.628701 3.458295 -1.020416
v -0.760975 3.364947 -0.708856
vt -0.002820 0.125000
vt 0.155212 0.125000
vt 0.155212 0.250000
vt -0.002820 0.250000
vt -0.002820 0.375000
vt 0.155212 0.375000
vt 0.155212 0.500000
vt -0.002820 0.500000
vt -0.002820 0.625000
vt 0.155212 0.625000
vt 0.155212 0.750000
vt -0.002820 0.750000
vt -0.002820 0.875000
vt 0.155212 0.875000
vt 0.155212 1.000000
vt -0.002820 1.000000
vt 0.250000 0.625000
vt 0.375000 0.625000
vt 0.375000 0.750000
vt 0.250000 0.750000
vt 0.155212 0.625000
vt 0.155212 0.750000
vt 0.155212 0.250000
vt 0.155212 0.375000
vt 0.250000 0.500000
vt 0.375000 0.500000
vt -0.002820 0.000000
vt 0.155212 0.000000
vt 0.125000 0.500000
vt 0.125000 0.625000
vt 0.155212 0.875000
vt 0.155212 0.500000
vt 0.125000 0.750000
vt 0.155212 0.250000
vt 0.155212 0.375000
vt 0.155212 0.125000
vt 0.155212 0.125000
vt 0.155212 0.625000
vt 0.155212 0.750000
vt 0.155212 0.000000
vt 0.155212 0.000000
vt 0.155212 1.000000
vt 0.155212 1.000000
vt 0.155212 0.875000
vt 0.155212 0.875000
vt 0.155212 1.000000
vt 0.155212 0.500000
vt 0.155212 0.500000
vt 0.155212 0.625000
vt 0.155212 0.250000
vt 0.155212 0.375000
vt 0.155212 0.125000
vt 0.155212 0.750000
vt 0.155212 0.000000
vt 0.874638 0.625000
vt 0.874638 0.500000
vt 0.874638 0.500000
vt 0.874638 0.625000
vt 0.874638 0.375000
vt 0.874638 0.250000
vt 0.874638 0.250000
vt 0.874638 0.375000
vt 0.874638 0.125000
vt 0.874638 0.125000
vt 0.874638 0.750000
vt 0.874638 0.750000
vt 0.874638 0.000000
vt 0.874638 0.000000
vt 0.874638 0.875000
vt 0.874638 0.875000
vt 0.874638 1.000000
vt 0.874638 1.000000
vt 0.935777 0.625000
vt 0.998277 0.500000
vt 0.998277 0.625000
vt 0.998277 0.750000
vt 0.935777 0.750000
vt 0.873277 0.750000
vt 0.873277 0.500000
vt 0.935777 0.500000
vt 0.873277 0.625000
vt 0.874638 0.500000
vt 0.874638 0.375000
vt 0.874638 0.375000
vt 0.874638 0.500000
vt 0.874638 1.000000
vt 0.874638 0.875000
vt 0.874638 0.875000
vt 0.874638 1.000000
vt 0.874638 0.625000
vt 0.874638 0.625000
vt 0.874638 0.250000
vt 0.874638 0.250000
vt 0.874638 0.125000
vt 0.874638 0.125000
vt 0.874638 0.750000
vt 0.874638 0.750000
vt 0.874638 0.000000
vt 0.874638 0.000000
vt 0.874638 0.875000
vt 0.874638 0.750000
vt 0.874638 0.125000
vt 0.874638 0.000000
vt 0.874638 0.625000
vt 0.874638 0.250000
vt 0.874638 0.375000
vt 0.874638 0.500000
vt 0.874638 1.000000
vt 0.874638 0.250000
vt 0.874638 0.125000
vt 0.874638 0.750000
vt 0.874638 0.625000
vt 0.874638 0.000000
vt 0.874638 0.875000
vt 0.874638 0.500000
vt 0.874638 0.375000
vt 0.874638 1.000000
vt 0.874638 0.375000
vt 0.874638 0.250000
vt 0.874638 0.625000
vt 0.874638 0.500000
vt 0.874638 1.000000
vt 0.874638 0.875000
vt 0.874638 0.750000
vt 0.874638 0.125000
vt 0.874638 0.000000
vt 0.874638 0.500000
vt 0.874638 0.375000
vt 0.874638 1.000000
vt 0.874638 0.875000
vt 0.874638 0.625000
vt 0.874638 0.250000
vt 0.874638 0.125000
vt 0.874638 0.750000
vt 0.874638 0.000000
vn -0.9063 -0.0799 -0.4151
vn 0.3647 -0.0371 -0.9304
vn 0.8853 0.2161 0.4118
vn -0.3625 0.1643 0.9174
vn 0.0000 -1.0000 0.0000
vn 0.8604 0.2902 0.4189
vn -0.3287 -0.3662 -0.8705
vn 0.9503 0.1139 -0.2898
vn -0.9583 0.0128 0.2855
vn 0.3193 0.4367 0.8410
vn 0.3602 -0.3371 -0.8699
vn 0.3362 0.2357 0.9118
vn -0.3465 -0.1020 -0.9325
vn -0.3247 -0.2917 -0.8997
vn -0.8893 -0.1342 -0.4371
vn 0.8713 0.2220 0.4377
vn -0.9727 0.1175 0.2003
vn 0.9694 -0.0012 -0.2454
vn -0.9686 0.1226 0.2163
vn -0.8810 -0.1706 -0.4412
vn -0.3569 0.4077 0.8405
vn -0.3714 0.0289 0.9280
vn 0.9477 0.1478 -0.2827
vn -0.3369 0.0926 -0.9370
vn -0.9081 0.0359 -0.4173
vn 0.9674 -0.0259 -0.2521
vn -0.3685 0.3783 0.8492
vn 0.3824 -0.2683 -0.8842
vn 0.3265 0.3841 0.8636
vn 0.9061 0.0979 0.4115
vn -0.9479 0.0189 0.3180
vn 0.3296 0.0451 0.9430
vn 0.3684 0.1498 -0.9175
vn 0.2986 -0.8790 -0.3719
vn -0.0910 -0.8618 -0.4990
vn -0.2097 -0.9080 -0.3628
vn 0.2986 -0.9386 -0.1727
vn -0.2097 -0.9579 -0.1962
vn 0.0973 -0.9950 -0.0229
vn 0.0973 -0.8437 -0.5280
vn -0.0910 -0.9942 -0.0571
vn -0.3266 0.9337 0.1466
vn -0.1341 0.7887 0.5999
vn 0.1320 0.7885 0.6007
vn 0.1208 0.9920 -0.0362
vn 0.3399 0.8564 0.3887
vn 0.3288 0.9322 0.1515
vn -0.1227 0.9918 -0.0355
vn -0.3382 0.8547 0.3940
vn 0.1950 0.9482 -0.2509
vn -0.1790 0.6948 0.6966
vn 0.5539 0.8321 0.0303
vn -0.1790 0.9634 -0.1998
vn -0.4363 0.8950 0.0932
vn 0.5539 0.7116 0.4322
vn -0.4363 0.7988 0.4143
vn 0.1950 0.6540 0.7309
vn 0.3336 0.0861 0.9388
vn -0.8478 0.3097 0.4305
vn 0.8854 0.2090 0.4151
vn -0.8478 0.4954 -0.1893
vn -0.3282 0.6209 -0.7119
vn 0.8854 0.4028 -0.2318
vn -0.3282 0.1272 0.9360
vn 0.3336 0.5882 -0.7367
vn -0.9163 0.2873 -0.2789
vn 0.9163 0.0867 0.3909
vn -0.9163 0.0867 0.3909
vn 0.3496 -0.0760 0.9338
vn 0.3496 0.4500 -0.8218
vn -0.3496 -0.0760 0.9338
vn 0.9163 0.2873 -0.2789
vn -0.3496 0.4500 -0.8218
vn -0.2281 -0.5646 -0.7932
vn 0.6335 -0.6348 -0.4423
vn -0.2281 -0.9078 0.3520
vn 0.2354 -0.5420 -0.8067
vn 0.2354 -0.8963 0.3758
vn -0.5826 -0.8127 -0.0112
vn 0.6335 -0.7734 0.0203
vn -0.5826 -0.6850 -0.4375
vn 0.0716 -0.8843 -0.4615
vn -0.0653 -0.9908 -0.1187
vn 0.2055 -0.9122 -0.3544
vn -0.0653 -0.8928 -0.4456
vn -0.1586 -0.9265 -0.3413
vn 0.2055 -0.9568 -0.2056
vn -0.1586 -0.9615 -0.2244
vn 0.0716 -0.9923 -0.1008
vn 0.0932 -0.9949 -0.0396
vn -0.1984 -0.9584 -0.2054
vn 0.2786 -0.9442 -0.1758
vn -0.1984 -0.9134 -0.3554
vn -0.0842 -0.8690 -0.4877
vn 0.2786 -0.8853 -0.3724
vn -0.0842 -0.9940 -0.0705
vn 0.0932 -0.8527 -0.5140
usemtl TreeBasicMaterial
s off
f 9/1/1 10/2/1 4/3/1 3/4/1
f 13/5/2 14/6/2 8/7/2 7/8/2
f 11/9/3 12/10/3 6/11/3 5/12/3
f 15/13/4 16/14/4 2/15/4 1/16/4
f 18/17/5 11/18/5 5/19/5 15/20/5
f 6/11/6 12/10/6 23/21/6 24/22/6
f 14/6/7 4/3/7 20/23/7 21/24/7
f 13/25/5 7/26/5 11/18/5 18/17/5
f 7/8/8 8/7/8 12/10/8 11/9/8
f 1/27/9 2/28/9 10/2/9 9/1/9
f 3/29/5 13/25/5 18/17/5 9/30/5
f 16/14/10 6/11/10 24/22/10 25/31/10
f 8/7/11 14/6/11 21/24/11 22/32/11
f 9/30/5 18/17/5 15/20/5 1/33/5
f 5/12/12 6/11/12 16/14/12 15/13/12
f 3/4/13 4/3/13 14/6/13 13/5/13
f 21/24/14 20/23/14 27/34/14 28/35/14
f 20/23/15 19/36/15 17/37/15 27/34/15
f 24/22/16 23/21/16 30/38/16 31/39/16
f 19/36/17 26/40/17 33/41/17 17/37/17
f 12/10/18 8/7/18 22/32/18 23/21/18
f 10/2/19 2/28/19 26/40/19 19/36/19
f 4/3/20 10/2/20 19/36/20 20/23/20
f 2/15/21 16/14/21 25/31/21 26/42/21
f 33/43/22 32/44/22 40/45/22 41/46/22
f 30/38/23 29/47/23 37/48/23 38/49/23
f 28/35/24 27/34/24 35/50/24 36/51/24
f 27/34/25 17/37/25 34/52/25 35/50/25
f 23/21/26 22/32/26 29/47/26 30/38/26
f 26/42/27 25/31/27 32/44/27 33/43/27
f 22/32/28 21/24/28 28/35/28 29/47/28
f 25/31/29 24/22/29 31/39/29 32/44/29
f 31/39/30 30/38/30 38/49/30 39/53/30
f 17/37/31 33/41/31 41/54/31 34/52/31
f 32/44/32 31/39/32 39/53/32 40/45/32
f 29/47/33 28/35/33 36/51/33 37/48/33
f 38/55/34 37/56/34 95/57/34 94/58/34
f 36/59/35 35/60/35 97/61/35 96/62/35
f 35/60/36 34/63/36 98/64/36 97/61/36
f 39/65/37 38/55/37 94/58/37 93/66/37
f 34/63/38 41/67/38 91/68/38 98/64/38
f 40/69/39 39/65/39 93/66/39 92/70/39
f 37/56/40 36/59/40 96/62/40 95/57/40
f 41/71/41 40/69/41 92/70/41 91/72/41
f 42/73/42 49/74/42 58/75/42
f 43/76/43 44/77/43 42/73/43
f 45/78/44 42/73/44 44/77/44
f 42/73/45 47/79/45 48/80/45
f 46/81/46 42/73/46 45/78/46
f 47/79/47 42/73/47 46/81/47
f 48/80/48 49/74/48 42/73/48
f 42/73/49 58/75/49 43/76/49
f 54/82/50 52/83/50 48/84/50 47/85/50
f 56/86/51 53/87/51 44/88/51 43/89/51
f 50/90/52 54/82/52 47/85/52 46/91/52
f 52/83/53 57/92/53 49/93/53 48/84/53
f 57/92/54 51/94/54 58/95/54 49/93/54
f 55/96/55 50/90/55 46/91/55 45/97/55
f 51/94/56 56/98/56 43/99/56 58/95/56
f 53/87/57 55/96/57 45/97/57 44/88/57
f 60/100/58 61/101/58 55/96/58 53/87/58
f 74/102/59 59/103/59 56/98/59 51/94/59
f 61/101/60 62/104/60 50/90/60 55/96/60
f 65/105/61 74/102/61 51/94/61 57/92/61
f 64/106/62 65/105/62 57/92/62 52/83/62
f 62/104/63 63/107/63 54/82/63 50/90/63
f 59/108/64 60/100/64 53/87/64 56/86/64
f 63/107/65 64/106/65 52/83/65 54/82/65
f 73/109/66 67/110/66 74/102/66 65/105/66
f 71/111/67 66/112/67 62/104/67 61/101/67
f 67/110/68 72/113/68 59/103/68 74/102/68
f 69/114/69 71/111/69 61/101/69 60/100/69
f 70/115/70 68/116/70 64/106/70 63/107/70
f 72/117/71 69/114/71 60/100/71 59/108/71
f 66/112/72 70/115/72 63/107/72 62/104/72
f 68/116/73 73/109/73 65/105/73 64/106/73
f 80/118/74 81/119/74 73/109/74 68/116/74
f 78/120/75 79/121/75 70/115/75 66/112/75
f 75/122/76 76/123/76 69/114/76 72/117/76
f 79/121/77 80/118/77 68/116/77 70/115/77
f 76/123/78 77/124/78 71/111/78 69/114/78
f 90/125/79 75/126/79 72/113/79 67/110/79
f 77/124/80 78/120/80 66/112/80 71/111/80
f 81/119/81 90/125/81 67/110/81 73/109/81
f 86/127/82 84/128/82 80/118/82 79/121/82
f 88/129/83 85/130/83 76/123/83 75/122/83
f 82/131/84 86/127/84 79/121/84 78/120/84
f 84/128/85 89/132/85 81/119/85 80/118/85
f 89/132/86 83/133/86 90/125/86 81/119/86
f 87/134/87 82/131/87 78/120/87 77/124/87
f 83/133/88 88/135/88 75/126/88 90/125/88
f 85/130/89 87/134/89 77/124/89 76/123/89
f 92/70/90 93/66/90 87/134/90 85/130/90
f 98/64/91 91/68/91 88/135/91 83/133/91
f 93/66/92 94/58/92 82/131/92 87/134/92
f 97/61/93 98/64/93 83/133/93 89/132/93
f 96/62/94 97/61/94 89/132/94 84/128/94
f 94/58/95 95/57/95 86/127/95 82/131/95
f 91/72/96 92/70/96 85/130/96 88/129/96
f 95/57/97 96/62/97 84/128/97 86/127/97
